<svg width="32" height="32" viewBox="0 0 32 32" fill="none" xmlns="http://www.w3.org/2000/svg">
  <circle cx="16" cy="16" r="16" fill="#2563eb"/>
  <path d="M16 6C12.5 6 9.6 8.2 9.6 11.2C9.6 11.7 9.9 12 10.4 12C10.9 12 11.2 11.7 11.2 11.2C11.2 9.4 13.4 8 16 8C18.6 8 20.8 9.4 20.8 11.2C20.8 12.6 19.8 13.7 18.4 14.5L17.6 14.9V16.4C17.6 16.9 17.3 17.2 16.8 17.2C16.3 17.2 16 16.9 16 16.4V14.3L16.9 13.8C18 13.3 18.4 12.4 18.4 11.2C18.4 10.2 17.2 9.6 16 9.6C14.8 9.6 13.6 10.2 13.6 11.2C13.6 11.7 13.3 12 12.8 12C12.3 12 12 11.7 12 11.2C12 9.4 14.2 8 16 8C17.8 8 19.2 8.6 19.2 11.2C19.2 12.2 18.6 13 17.6 13.4V16.4C17.6 16.9 17.3 17.2 16.8 17.2C16.3 17.2 16 16.9 16 16.4V14.3L16.9 13.8C18 13.3 18.4 12.4 18.4 11.2C18.4 10.2 17.2 9.6 16 9.6C14.8 9.6 13.6 10.2 13.6 11.2C13.6 11.7 13.3 12 12.8 12C12.3 12 12 11.7 12 11.2C12 9.4 14.2 8 16 8Z" fill="white"/>
  <path d="M16 6C12.5 6 9.6 8.2 9.6 11.2C9.6 14.2 12.5 15.2 16 15.2C17.8 15.2 19.2 15.9 19.2 16.8C19.2 17.7 17.8 18.4 16 18.4C14.2 18.4 12.8 17.7 12.8 16.8" stroke="white" stroke-width="2.4" stroke-linecap="round" fill="none"/>
  <path d="M16 25.6C19.5 25.6 22.4 23.4 22.4 20.8C22.4 17.8 19.5 16.8 16 16.8C14.2 16.8 12.8 16.1 12.8 15.2C12.8 14.3 14.2 13.6 16 13.6C17.8 13.6 19.2 14.3 19.2 15.2" stroke="white" stroke-width="2.4" stroke-linecap="round" fill="none"/>
</svg>
