<svg width="40" height="40" viewBox="0 0 40 40" fill="none" xmlns="http://www.w3.org/2000/svg">
  <!-- Background circle -->
  <circle cx="20" cy="20" r="20" fill="#2563eb"/>
  
  <!-- Letter S -->
  <path d="M20 8C15.6 8 12 10.3 12 14C12 17.7 15.6 19 20 19C22.2 19 24 19.9 24 21C24 22.1 22.2 23 20 23C17.8 23 16 22.1 16 21" stroke="white" stroke-width="3" stroke-linecap="round" fill="none"/>
  
  <!-- Letter S continuation -->
  <path d="M20 32C24.4 32 28 29.7 28 26C28 22.3 24.4 21 20 21C17.8 21 16 20.1 16 19C16 17.9 17.8 17 20 17C22.2 17 24 17.9 24 19" stroke="white" stroke-width="3" stroke-linecap="round" fill="none"/>
</svg>
